<?xml version="1.0" standalone="no"?>
<!DOCTYPE svg PUBLIC "-//W3C//DTD SVG 20010904//EN"
 "http://www.w3.org/TR/2001/REC-SVG-20010904/DTD/svg10.dtd">
<svg version="1.0" xmlns="http://www.w3.org/2000/svg"
 width="250.000000pt" height="250.000000pt" viewBox="0 0 250.000000 250.000000"
 preserveAspectRatio="xMidYMid meet">
<metadata>
Created by potrace 1.14, written by Peter Selinger 2001-2017
</metadata>
<g transform="translate(0.000000,250.000000) scale(0.100000,-0.100000)"
fill="#000000" stroke="none">
<path d="M1260 2426 c0 -7 -18 -30 -39 -49 -39 -35 -94 -56 -155 -61 -72 -6
-176 31 -228 79 -28 26 -44 31 -50 17 -2 -4 -50 -46 -108 -92 -58 -46 -110
-89 -116 -95 -10 -9 -54 -47 -148 -127 l-29 -24 35 -46 c71 -93 79 -215 27
-422 -63 -247 -79 -316 -85 -371 -24 -209 13 -375 110 -500 69 -88 159 -151
371 -260 244 -126 314 -173 387 -263 l27 -33 18 22 c78 94 168 156 388 268
254 129 336 190 412 309 29 45 70 127 63 127 -1 0 3 13 9 28 40 105 30 278
-30 525 -11 48 -22 94 -24 102 -2 8 -8 36 -14 61 -19 83 -24 133 -24 219 0 94
19 152 67 202 14 15 26 30 26 33 0 9 -13 21 -115 105 -141 115 -259 214 -273
228 -18 16 -15 17 -69 -22 -56 -39 -122 -65 -178 -70 -92 -7 -189 34 -223 95
-18 31 -32 38 -32 15z"/>
</g>
</svg>
